# xmcd
#
# Track frame offsets:
#	150
#	9533
#	19216
#	30264
#	40389
#	56657
#	65462
#	77222
#	88652
#
# Disc length: 1321 seconds
#
# Revision: 0
# Processed by: cddbd v1.5.2PL0 Copyright (c) Steve Scherf et al.
# Submitted via: audiograbber 1.83.01
#
DISCID=6a052709
DTITLE=Chet Atkins, Floyd Craymer and Boots Randolph - Chet, Floyd and Boots
DYEAR=1971
DGENRE=Country
TTITLE0=Hot Moking Bird_Chet Atkins
TTITLE1=Piano Roll Rock_Floyd Cramer
TTITLE2=Big Daddy_Boots Randolph
TTITLE3=Oh Lonesome Me_Chet Atkins
TTITLE4=Georgia On My Mind_Floyd Cramer
TTITLE5=Yakety Sax_Boots Randolph
TTITLE6=From Nashville With Love_Chet Atkins
TTITLE7=Cast Your Fate To The Wind_Floyd Cramer
TTITLE8=Temptation_Boots Randolph
EXTD=I made this CD from one of my LP's
EXTT0=
EXTT1=
EXTT2=
EXTT3=
EXTT4=
EXTT5=
EXTT6=
EXTT7=
EXTT8=
PLAYORDER=
